<svg width="13" height="16" viewBox="0 0 13 16" fill="none" xmlns="http://www.w3.org/2000/svg">
<path d="M11.875 1.75001H8.73063L7.77437 0.788134C7.72181 0.736001 7.65948 0.694756 7.59095 0.666763C7.52241 0.63877 7.44903 0.624581 7.375 0.625009H5.125C5.05097 0.624581 4.97759 0.63877 4.90905 0.666763C4.84052 0.694756 4.77818 0.736001 4.72563 0.788134L3.76938 1.75001H0.625C0.475816 1.75001 0.332742 1.80927 0.227253 1.91476C0.121763 2.02025 0.0625 2.16333 0.0625 2.31251V4.56251C0.0625 4.71169 0.121763 4.85477 0.227253 4.96026C0.332742 5.06575 0.475816 5.12501 0.625 5.12501H1.1875V15.25C1.1875 15.3992 1.24676 15.5423 1.35225 15.6478C1.45774 15.7532 1.60082 15.8125 1.75 15.8125H10.75C10.8992 15.8125 11.0423 15.7532 11.1477 15.6478C11.2532 15.5423 11.3125 15.3992 11.3125 15.25V5.12501H11.875C12.0242 5.12501 12.1673 5.06575 12.2727 4.96026C12.3782 4.85477 12.4375 4.71169 12.4375 4.56251V2.31251C12.4375 2.16333 12.3782 2.02025 12.2727 1.91476C12.1673 1.80927 12.0242 1.75001 11.875 1.75001ZM10.1875 14.6875H2.3125V5.12501H10.1875V14.6875ZM11.3125 4.00001H1.1875V2.87501H4C4.07403 2.87544 4.14741 2.86125 4.21595 2.83326C4.28448 2.80526 4.34682 2.76402 4.39937 2.71188L5.35563 1.75001H7.14437L8.10063 2.71188C8.15319 2.76402 8.21552 2.80526 8.28405 2.83326C8.35259 2.86125 8.42597 2.87544 8.5 2.87501H11.3125V4.00001Z" fill="#008184"/>
<path d="M7.9375 13.5625C7.78832 13.5625 7.64524 13.5032 7.53975 13.3977C7.43426 13.2923 7.375 13.1492 7.375 13V6.8125C7.375 6.66332 7.43426 6.52024 7.53975 6.41475C7.64524 6.30926 7.78832 6.25 7.9375 6.25C8.08668 6.25 8.22976 6.30926 8.33525 6.41475C8.44074 6.52024 8.5 6.66332 8.5 6.8125V13C8.5 13.1492 8.44074 13.2923 8.33525 13.3977C8.22976 13.5032 8.08668 13.5625 7.9375 13.5625Z" fill="#008184"/>
<path d="M4.5625 13.5625C4.41332 13.5625 4.27024 13.5032 4.16475 13.3977C4.05926 13.2923 4 13.1492 4 13V6.8125C4 6.66332 4.05926 6.52024 4.16475 6.41475C4.27024 6.30926 4.41332 6.25 4.5625 6.25C4.71168 6.25 4.85476 6.30926 4.96025 6.41475C5.06574 6.52024 5.125 6.66332 5.125 6.8125V13C5.125 13.1492 5.06574 13.2923 4.96025 13.3977C4.85476 13.5032 4.71168 13.5625 4.5625 13.5625Z" fill="#008184"/>
</svg>
