<svg width="12" height="14" viewBox="0 0 12 14" fill="none" xmlns="http://www.w3.org/2000/svg">
<path fill-rule="evenodd" clip-rule="evenodd" d="M3 2.24981C3 2.44872 2.92099 2.63949 2.78033 2.78014C2.63968 2.92079 2.44892 2.99981 2.25 2.99981C2.05109 2.99981 1.86033 2.92079 1.71967 2.78014C1.57902 2.63949 1.5 2.44872 1.5 2.24981C1.5 2.05089 1.57902 1.86013 1.71967 1.71948C1.86033 1.57882 2.05109 1.49981 2.25 1.49981C2.44892 1.49981 2.63968 1.57882 2.78033 1.71948C2.92099 1.86013 3 2.05089 3 2.24981ZM3 4.37181C3.50042 4.19489 3.92217 3.84676 4.19073 3.38895C4.45929 2.93114 4.55735 2.39313 4.4676 1.87001C4.37785 1.34689 4.10605 0.872328 3.70025 0.530228C3.29445 0.188118 2.78077 0.000488281 2.25 0.000488281C1.71924 0.000488281 1.20556 0.188118 0.799762 0.530228C0.393962 0.872328 0.122161 1.34689 0.0324114 1.87001C-0.0573486 2.39313 0.0407214 2.93114 0.309281 3.38895C0.577841 3.84676 0.999591 4.19489 1.5 4.37181V5.24981C1.5 5.84654 1.73706 6.41884 2.15901 6.8408C2.58097 7.26275 3.15327 7.49981 3.75 7.49981H5.25V9.6278C4.74932 9.8047 4.3273 10.153 4.05855 10.611C3.78981 11.069 3.69164 11.6073 3.78139 12.1307C3.87115 12.6541 4.14306 13.1289 4.54905 13.4712C4.95504 13.8134 5.46897 14.0012 6 14.0012C6.53104 14.0012 7.04497 13.8134 7.45096 13.4712C7.85695 13.1289 8.1289 12.6541 8.2186 12.1307C8.3084 11.6073 8.2102 11.069 7.94146 10.611C7.67271 10.153 7.25069 9.8047 6.75 9.6278V7.49981H8.25C8.8467 7.49981 9.419 7.26275 9.841 6.8408C10.263 6.41884 10.5 5.84654 10.5 5.24981V4.37181C11.0004 4.19489 11.4222 3.84676 11.6907 3.38895C11.9593 2.93114 12.0574 2.39313 11.9676 1.87001C11.8778 1.34689 11.6061 0.872328 11.2002 0.530228C10.7944 0.188118 10.2808 0.000488281 9.75 0.000488281C9.2192 0.000488281 8.7056 0.188118 8.2998 0.530228C7.89396 0.872328 7.62216 1.34689 7.53241 1.87001C7.44265 2.39313 7.54072 2.93114 7.80928 3.38895C8.0778 3.84676 8.4996 4.19489 9 4.37181V5.24981C9 5.44872 8.921 5.63949 8.7803 5.78014C8.6397 5.92079 8.4489 5.99981 8.25 5.99981H3.75C3.55109 5.99981 3.36033 5.92079 3.21967 5.78014C3.07902 5.63949 3 5.44872 3 5.24981V4.37181ZM6.75 11.7498C6.75 11.9487 6.67099 12.1395 6.53033 12.2801C6.38968 12.4208 6.19892 12.4998 6 12.4998C5.80109 12.4998 5.61033 12.4208 5.46967 12.2801C5.32902 12.1395 5.25 11.9487 5.25 11.7498C5.25 11.5509 5.32902 11.3601 5.46967 11.2195C5.61033 11.0788 5.80109 10.9998 6 10.9998C6.19892 10.9998 6.38968 11.0788 6.53033 11.2195C6.67099 11.3601 6.75 11.5509 6.75 11.7498ZM9.75 2.99981C9.9489 2.99981 10.1397 2.92079 10.2803 2.78014C10.421 2.63949 10.5 2.44872 10.5 2.24981C10.5 2.05089 10.421 1.86013 10.2803 1.71948C10.1397 1.57882 9.9489 1.49981 9.75 1.49981C9.5511 1.49981 9.3603 1.57882 9.2197 1.71948C9.079 1.86013 9 2.05089 9 2.24981C9 2.44872 9.079 2.63949 9.2197 2.78014C9.3603 2.92079 9.5511 2.99981 9.75 2.99981Z" fill="#57606A"/>
</svg>
