<svg width="16" height="12" viewBox="0 0 16 12" fill="none" xmlns="http://www.w3.org/2000/svg">
<path fill-rule="evenodd" clip-rule="evenodd" d="M1.67884 5.93165C2.09143 5.31094 2.9206 4.18152 4.0447 3.21477C5.17567 2.2421 6.52738 1.5 8.00001 1.5C9.47264 1.5 10.8244 2.2421 11.9553 3.21477C13.0794 4.18152 13.9086 5.31094 14.3212 5.93165C14.35 5.975 14.35 6.025 14.3212 6.06835C13.9086 6.68906 13.0794 7.81848 11.9553 8.7852C10.8244 9.7579 9.47264 10.5 8.00001 10.5C6.52738 10.5 5.17567 9.7579 4.0447 8.7852C2.9206 7.81848 2.09143 6.68906 1.67884 6.06835C1.65002 6.025 1.65002 5.975 1.67884 5.93165ZM8.00001 0C6.01865 0 4.32919 0.99167 3.06662 2.07751C1.79718 3.16926 0.880454 4.42307 0.429635 5.10129C0.0664231 5.64771 0.0664245 6.35229 0.429635 6.89871C0.880455 7.57693 1.79718 8.8307 3.06662 9.9225C4.32919 11.0083 6.01865 12 8.00001 12C9.98137 12 11.6708 11.0083 12.9334 9.9225C14.2028 8.8307 15.1196 7.57693 15.5704 6.89871C15.9336 6.35229 15.9336 5.64771 15.5704 5.10129C15.1196 4.42307 14.2028 3.16926 12.9334 2.07751C11.6708 0.99167 9.98137 0 8.00001 0ZM8 8C9.10457 8 10 7.10457 10 6C10 4.89543 9.10457 4 8 4C6.89543 4 6 4.89543 6 6C6 7.10457 6.89543 8 8 8Z" fill="#57606A"/>
</svg>
