<svg width="17" height="16" viewBox="0 0 17 16" fill="none" xmlns="http://www.w3.org/2000/svg">
<rect x="0.5" width="16" height="16" rx="8" fill="#DAE3E3"/>
<path d="M9.25 5.5C9.66421 5.5 10 5.16421 10 4.75C10 4.33579 9.66421 4 9.25 4C8.83579 4 8.5 4.33579 8.5 4.75C8.5 5.16421 8.83579 5.5 9.25 5.5Z" fill="#374146"/>
<path d="M7.49992 11.9997C7.38774 12.0004 7.27855 11.9634 7.18992 11.8947C7.11596 11.8367 7.05984 11.759 7.028 11.6706C6.99616 11.5821 6.9899 11.4865 7.00992 11.3947L7.73992 8.10966L7.27492 8.41966C7.16514 8.47855 7.03733 8.49433 6.91651 8.46392C6.7957 8.43351 6.6906 8.35909 6.62178 8.25524C6.55296 8.15139 6.5254 8.02559 6.54447 7.90248C6.56355 7.77937 6.6279 7.66781 6.72492 7.58966L8.22492 6.58966C8.30761 6.53377 8.40512 6.50391 8.50492 6.50391C8.60472 6.50391 8.70224 6.53377 8.78492 6.58966C8.86881 6.64475 8.93417 6.7238 8.97252 6.81655C9.01086 6.90929 9.02041 7.01142 8.99992 7.10966L8.22492 10.6097L9.28492 10.0797C9.34384 10.0442 9.40943 10.0213 9.4776 10.0123C9.54577 10.0034 9.61506 10.0086 9.68113 10.0276C9.7472 10.0467 9.80863 10.0791 9.86159 10.123C9.91455 10.1668 9.9579 10.2211 9.98892 10.2825C10.0199 10.3438 10.038 10.4109 10.0419 10.4796C10.0458 10.5482 10.0355 10.6169 10.0117 10.6814C9.98787 10.7459 9.95098 10.8048 9.90336 10.8544C9.85574 10.904 9.7984 10.9432 9.73492 10.9697L7.73492 11.9697C7.66012 11.9983 7.57953 12.0086 7.49992 11.9997Z" fill="#374146"/>
</svg>
