<svg width="219" height="25" viewBox="0 0 219 25" fill="none" xmlns="http://www.w3.org/2000/svg">
<g clipPath="url(#clip0_708_9569)">
<path fill-rule="evenodd" clip-rule="evenodd" d="M51.25 12.5C51.25 5.60219 45.5773 0 38.6242 0C37.984 0 37.3261 0.0364964 36.6859 0.145985C31.2799 0.930657 27.6522 4.92701 25.625 7.9927C23.5978 4.92701 19.9701 0.930657 14.5641 0.145985C13.9239 0.0547445 13.266 0 12.6258 0C5.65493 0 0 5.60219 0 12.5C0 19.3978 5.67271 25 12.6258 25C13.266 25 13.9239 24.9635 14.5819 24.854C19.9879 24.0511 23.6155 20.0547 25.6428 16.9891C27.67 20.0547 31.2977 24.0511 36.7037 24.854C37.3439 24.9453 38.0018 25 38.6598 25C45.5773 25 51.25 19.3978 51.25 12.5ZM13.9416 20.4744C13.4971 20.5474 13.0525 20.5657 12.6079 20.5657C8.01996 20.5657 4.30336 16.9343 4.30336 12.5C4.30336 8.04744 8.03774 4.4343 12.6257 4.4343C13.0703 4.4343 13.5148 4.4708 13.9594 4.52554C19.0631 5.27372 22.1751 10.4379 23.242 12.5C22.1573 14.5803 19.0275 19.7263 13.9416 20.4744ZM37.2905 4.52554C32.1868 5.27372 29.057 10.4379 28.0079 12.5C29.057 14.562 32.1868 19.7263 37.2905 20.4744C37.735 20.5292 38.1796 20.5657 38.6242 20.5657C43.1944 20.5657 46.9287 16.9525 46.9287 12.5C46.9287 8.06569 43.2121 4.4343 38.6242 4.4343C38.1796 4.4343 37.735 4.4708 37.2905 4.52554ZM9.06449 11.161H16.7004V13.5642H9.06449V11.161ZM42.1479 13.5817H39.5728V16.1077H37.1049V13.5817H34.5298V11.161H37.1049V8.63499H39.5728V11.161H42.1479V13.5817Z" fill="#00979D"/>
</g>
<rect width="159" height="25" transform="translate(59.25)" fill="#00979D"/>
<path d="M68.466 19H71.525V15.352H73.14C76.446 15.352 78.099 13.509 78.099 10.887C78.099 8.512 76.807 6.65 73.387 6.65H68.466V19ZM73.083 12.844H71.525V9.139H73.026C74.584 9.139 74.85 10.013 74.85 10.982C74.85 12.35 74.28 12.844 73.083 12.844ZM81.3236 19H84.3826V15.086H85.9216L87.7836 19H91.3936L88.9806 14.478C90.3296 13.756 91.0136 12.464 91.0136 10.773C91.0136 8.398 89.7216 6.65 86.3016 6.65H81.3236V19ZM85.9976 12.635H84.3826V9.139H85.9406C87.3656 9.139 87.7646 9.69 87.7646 10.792C87.7646 12.16 87.0616 12.635 85.9976 12.635ZM99.1782 6.479C95.4352 6.479 94.0102 9.234 94.0102 12.958C94.0102 17.043 95.6442 19.19 99.1972 19.19C103.168 19.19 104.479 16.397 104.479 12.825C104.479 8.113 102.693 6.479 99.1782 6.479ZM99.1972 16.701C97.4302 16.701 97.2592 15.447 97.2592 12.958C97.2592 9.937 97.5442 8.968 99.1782 8.968C100.983 8.968 101.23 9.804 101.23 12.825C101.23 15.675 100.983 16.701 99.1972 16.701ZM108.768 9.177H113.442V13.737C113.442 16.606 111.029 17.138 108.597 17.347L109.053 20.007C112.302 19.912 116.501 18.62 116.501 14.174V6.65H108.768V9.177ZM121.055 6.65V19H130.004V16.473H124.114V13.946H129.491V11.476H124.114V9.139H130.023V6.65H121.055ZM142.786 15.694C141.817 16.359 140.905 16.72 139.746 16.72C137.903 16.72 137.162 15.314 137.162 12.749C137.162 10.127 138.055 8.968 139.67 8.968C140.658 8.968 141.38 9.234 142.406 10.032L143.413 7.505C142.273 6.802 141.133 6.479 139.841 6.479C136.212 6.479 133.913 8.778 133.913 12.806C133.913 16.891 135.756 19.19 139.423 19.19C140.867 19.19 142.045 18.867 143.489 18.088L142.786 15.694ZM156.973 6.65H146.618V9.139H150.266V19H153.325V9.139H156.973V6.65ZM179.972 6.65V11.476H176.229V6.65H173.17V19H176.229V14.136H179.972V19H183.031V6.65H179.972ZM193.171 14.193C193.171 16.074 192.658 16.701 191.271 16.701C190.112 16.701 189.39 16.226 189.39 14.174V6.65H186.331V14.744C186.331 18.487 189.029 19.19 191.138 19.19C193.323 19.19 196.116 18.411 196.116 14.763V6.65H193.171V14.193ZM209.392 15.314C209.392 14.022 208.784 12.616 206.466 12.369V12.331C208.233 11.723 208.461 10.488 208.461 9.576C208.461 8.132 207.587 6.65 204.433 6.65H199.854V19H205.326C207.758 19 209.392 17.689 209.392 15.314ZM204.319 13.737C205.611 13.737 206.219 14.098 206.219 15.124C206.219 16.074 205.744 16.473 204.642 16.473H202.913V13.737H204.319ZM205.307 10.165C205.307 11.096 204.87 11.438 203.692 11.438H202.913V9.139H203.844C204.794 9.139 205.307 9.481 205.307 10.165Z" fill="white"/>
<defs>
<clipPath id="clip0_708_9569">
<rect width="51.25" height="25" fill="white"/>
</clipPath>
</defs>
</svg>
