<svg width="15" height="15" viewBox="0 0 15 15" fill="none" xmlns="http://www.w3.org/2000/svg">
    <path d="M13.755 3.39938L11.6006 1.245C11.2845 0.928442 10.8555 0.750394 10.4081 0.75H1.3125C1.16332 0.75 1.02024 0.809263 0.914753 0.914753C0.809263 1.02024 0.75 1.16332 0.75 1.3125V13.6875C0.75 13.8367 0.809263 13.9798 0.914753 14.0852C1.02024 14.1907 1.16332 14.25 1.3125 14.25H13.6875C13.8367 14.25 13.9798 14.1907 14.0852 14.0852C14.1907 13.9798 14.25 13.8367 14.25 13.6875V4.59187C14.2496 4.14447 14.0716 3.71554 13.755 3.39938V3.39938ZM5.25 1.875H9.75V4.125H5.25V1.875ZM13.125 13.125H1.875V1.875H4.125V4.6875C4.125 4.83668 4.18426 4.97976 4.28975 5.08525C4.39524 5.19074 4.53832 5.25 4.6875 5.25H10.3125C10.4617 5.25 10.6048 5.19074 10.7102 5.08525C10.8157 4.97976 10.875 4.83668 10.875 4.6875V2.10562L12.9619 4.1925C13.014 4.24506 13.0553 4.30739 13.0832 4.37593C13.1112 4.44446 13.1254 4.51785 13.125 4.59187V13.125Z" fill="#008184" />
    <path d="M10.3125 6.9375H4.6875C4.53832 6.9375 4.39524 6.99676 4.28975 7.10225C4.18426 7.20774 4.125 7.35082 4.125 7.5V10.875C4.125 11.0242 4.18426 11.1673 4.28975 11.2727C4.39524 11.3782 4.53832 11.4375 4.6875 11.4375H10.3125C10.4617 11.4375 10.6048 11.3782 10.7102 11.2727C10.8157 11.1673 10.875 11.0242 10.875 10.875V7.5C10.875 7.35082 10.8157 7.20774 10.7102 7.10225C10.6048 6.99676 10.4617 6.9375 10.3125 6.9375ZM9.75 10.3125H5.25V8.0625H9.75V10.3125Z" fill="#008184" />
</svg>
    